<svg viewBox="0 0 24 24" fill="none" xmlns="http://www.w3.org/2000/svg"><g id="SVGRepo_bgCarrier" stroke-width="0"></g><g id="SVGRepo_tracerCarrier" stroke-linecap="round" stroke-linejoin="round"></g><g id="SVGRepo_iconCarrier"> <path fill-rule="evenodd" clip-rule="evenodd" d="M6.39209 12C6.39257 9.40281 8.18171 7.16765 10.6654 6.66142C13.149 6.15518 15.6355 7.51885 16.6042 9.91847C17.5728 12.3181 16.7539 15.0854 14.6483 16.528C12.5426 17.9706 9.73656 17.6867 7.94624 15.85C6.95088 14.8288 6.39183 13.4439 6.39209 12V12Z" stroke="#000000" stroke-width="1.5" stroke-linecap="round" stroke-linejoin="round"></path> <path fill-rule="evenodd" clip-rule="evenodd" d="M9.42535 12C9.42565 10.887 10.1925 9.92922 11.2568 9.71236C12.3212 9.4955 13.3867 10.08 13.8018 11.1084C14.2168 12.1367 13.8658 13.3226 12.9634 13.9407C12.0609 14.5589 10.8585 14.4372 10.0913 13.65C9.66473 13.2124 9.42519 12.6188 9.42535 12V12Z" stroke="#000000" stroke-width="1.5" stroke-linecap="round" stroke-linejoin="round"></path> <path d="M17.0079 11.25C16.5937 11.25 16.2579 11.5858 16.2579 12C16.2579 12.4142 16.5937 12.75 17.0079 12.75V11.25ZM18.525 12.75C18.9392 12.75 19.275 12.4142 19.275 12C19.275 11.5858 18.9392 11.25 18.525 11.25V12.75ZM4.875 11.25C4.46079 11.25 4.125 11.5858 4.125 12C4.125 12.4142 4.46079 12.75 4.875 12.75V11.25ZM6.3921 12.75C6.80631 12.75 7.1421 12.4142 7.1421 12C7.1421 11.5858 6.80631 11.25 6.3921 11.25V12.75ZM10.95 6.556C10.95 6.97021 11.2858 7.306 11.7 7.306C12.1142 7.306 12.45 6.97021 12.45 6.556H10.95ZM12.45 5C12.45 4.58579 12.1142 4.25 11.7 4.25C11.2858 4.25 10.95 4.58579 10.95 5H12.45ZM10.95 19C10.95 19.4142 11.2858 19.75 11.7 19.75C12.1142 19.75 12.45 19.4142 12.45 19H10.95ZM12.45 17.444C12.45 17.0298 12.1142 16.694 11.7 16.694C11.2858 16.694 10.95 17.0298 10.95 17.444H12.45ZM17.0079 12.75H18.525V11.25H17.0079V12.75ZM4.875 12.75H6.3921V11.25H4.875V12.75ZM12.45 6.556V5H10.95V6.556H12.45ZM12.45 19V17.444H10.95V19H12.45Z" fill="#000000"></path> </g></svg>